<?xml version="1.0" standalone="no"?>
<!DOCTYPE svg PUBLIC "-//W3C//DTD SVG 20010904//EN"
 "http://www.w3.org/TR/2001/REC-SVG-20010904/DTD/svg10.dtd">
<svg version="1.0" xmlns="http://www.w3.org/2000/svg"
 width="300.000000pt" height="261.000000pt" viewBox="0 0 300.000000 261.000000"
 preserveAspectRatio="xMidYMid meet">
<metadata>
Created by potrace 1.10, written by Peter Selinger 2001-2011
</metadata>
<g transform="translate(0.000000,261.000000) scale(0.100000,-0.100000)"
fill="#ffffff" stroke="none">
<path d="M1455 2568 c-37 -20 -74 -61 -80 -88 -8 -38 6 -69 62 -132 26 -31 57
-71 67 -88 l19 -33 -25 6 c-31 8 -89 -8 -121 -34 -22 -17 -29 -18 -47 -7 -23
14 -60 84 -60 113 0 37 -33 136 -44 132 -44 -14 -48 -211 -7 -302 l22 -50 -28
-23 c-70 -57 -128 -82 -192 -82 -57 0 -61 -2 -67 -26 -11 -42 3 -95 33 -126
37 -39 181 -108 319 -153 l111 -36 -41 -40 c-22 -22 -57 -46 -78 -54 -52 -17
-102 -53 -163 -115 l-50 -51 93 45 c52 25 115 48 140 52 31 4 57 16 77 34 50
46 93 63 146 57 27 -3 69 0 100 8 30 8 75 15 101 15 48 0 68 12 89 52 10 18 9
20 -7 13 -54 -22 -56 -18 -20 29 62 82 61 164 -4 228 -40 40 -73 48 -105 24
-18 -13 -17 -14 12 -20 45 -10 73 -41 73 -80 0 -52 -28 -70 -97 -63 -32 3 -66
8 -75 12 -14 5 -18 2 -18 -12 0 -11 -10 -28 -21 -39 -29 -26 -138 -24 -277 5
-187 39 -277 88 -270 148 3 27 5 28 64 28 38 0 67 5 78 15 11 9 51 17 100 20
l81 6 -39 18 c-35 16 -38 20 -32 49 3 18 14 43 24 57 27 36 114 81 163 83 35
1 45 -3 66 -28 68 -84 77 -87 153 -60 69 24 170 16 170 -14 0 -5 -14 -14 -31
-20 l-31 -11 57 -62 c80 -88 101 -128 138 -264 25 -92 32 -139 32 -207 0 -51
4 -87 10 -87 22 1 33 17 40 62 9 56 18 55 33 -5 11 -42 13 -43 44 -40 18 2 44
6 58 9 l24 5 -30 19 c-22 14 -35 35 -48 76 -10 31 -31 79 -48 107 -16 28 -39
73 -49 100 -38 95 -62 133 -131 203 l-70 71 31 22 c17 12 31 31 31 41 0 26
-40 51 -92 57 -53 7 -68 18 -68 50 0 57 -43 105 -138 152 -74 37 -144 99 -162
141 -11 25 -9 34 10 65 24 39 24 39 -5 23z"/>
<path d="M1401 2059 c-34 -22 -59 -45 -55 -50 7 -12 104 -12 104 1 0 6 -7 10
-15 10 -22 0 -7 29 25 45 25 13 28 13 38 -8 8 -17 11 -18 11 -5 3 59 -27 61
-108 7z"/>
<path d="M1040 1890 c-11 -7 -8 -10 16 -10 37 0 59 -22 51 -51 -5 -20 -5 -20
14 -3 22 20 25 44 7 62 -14 14 -67 16 -88 2z"/>
<path d="M1710 1543 c-72 -12 -236 -66 -505 -168 -322 -121 -411 -149 -462
-143 -39 5 -41 -5 -8 -37 21 -22 33 -25 93 -25 38 0 104 9 147 20 43 11 83 20
88 20 14 0 1 -465 -17 -575 -7 -49 -11 -93 -7 -97 3 -3 29 -4 57 -1 l52 5 12
87 c6 47 15 206 19 354 4 147 10 269 13 272 7 8 267 107 390 150 123 43 243
68 287 60 18 -3 44 -18 57 -32 l24 -26 0 37 c0 50 -15 75 -55 92 -32 13 -127
17 -185 7z"/>
<path d="M85 1456 c-2 -6 -6 -54 -9 -106 -4 -52 -18 -176 -31 -275 -14 -99
-28 -227 -32 -284 l-6 -104 364 7 c200 5 400 11 444 15 73 6 76 7 40 14 -56
10 -291 26 -538 36 -115 5 -211 12 -214 15 -3 2 7 91 21 195 15 105 29 241 33
302 l6 112 76 -7 c136 -11 629 -17 589 -6 -20 5 -185 28 -365 50 -180 22 -338
42 -351 44 -13 2 -25 -2 -27 -8z"/>
<path d="M2105 1391 c-42 -7 -33 -8 56 -9 58 -1 173 -9 255 -17 82 -8 220 -19
307 -24 87 -5 160 -11 163 -14 7 -7 27 -767 20 -774 -3 -3 -108 -10 -233 -14
-253 -10 -673 -32 -948 -52 l-180 -12 265 -3 c146 -2 465 0 708 4 l444 6 -7
257 c-11 421 -21 640 -28 647 -9 9 -763 14 -822 5z"/>
<path d="M265 1203 c-3 -48 -12 -135 -20 -193 -8 -58 -15 -118 -17 -135 l-3
-30 110 4 c61 2 111 4 112 5 0 0 4 18 8 39 l7 37 -71 0 -71 0 0 33 c0 68 8 77
61 77 l49 0 0 35 c0 35 0 35 -45 35 l-45 0 0 50 0 49 68 3 c65 3 67 4 70 31 4
33 2 34 -115 41 l-91 7 -7 -88z"/>
<path d="M526 1258 c-3 -13 -6 -75 -6 -138 0 -63 -5 -148 -10 -189 -6 -41 -9
-76 -7 -77 2 -2 51 0 110 3 l107 6 0 34 0 33 -66 0 -65 0 3 170 c3 153 1 170
-14 170 -9 0 -23 3 -31 6 -9 3 -17 -3 -21 -18z"/>
<path d="M2146 1258 c-5 -16 -26 -510 -26 -595 l0 -63 40 0 c33 0 40 4 45 23
4 18 25 540 25 625 0 19 -5 22 -40 22 -24 0 -42 -5 -44 -12z"/>
<path d="M1396 1250 c-34 -11 -73 -45 -91 -80 -9 -18 -14 -93 -17 -265 -3
-216 -1 -243 15 -273 30 -55 71 -74 149 -69 83 5 123 28 163 92 l30 48 0 221
c0 214 -1 222 -23 259 -13 21 -38 45 -55 53 -36 19 -131 27 -171 14z m132
-122 c13 -17 26 -290 17 -357 -9 -69 -25 -83 -89 -79 l-51 3 -7 45 c-11 73 -9
359 2 381 9 15 22 19 64 19 31 0 58 -5 64 -12z"/>
<path d="M1728 938 c-3 -178 -9 -331 -13 -340 -6 -16 -1 -18 43 -18 l50 0 6
38 c3 20 8 86 12 145 l6 108 27 -3 c20 -2 34 -18 64 -68 38 -64 38 -67 32
-138 l-6 -73 48 3 48 3 3 93 c3 90 2 94 -33 156 -25 44 -32 67 -24 71 50 31
67 214 26 276 -36 54 -77 69 -188 69 l-96 0 -5 -322z m213 185 c12 -31 4 -100
-13 -120 -6 -7 -27 -13 -48 -13 -34 0 -38 3 -44 31 -3 17 -6 53 -6 80 l0 49
50 0 c46 0 51 -3 61 -27z"/>
<path d="M2296 1238 c-3 -13 -6 -38 -6 -55 0 -32 1 -33 41 -33 l42 0 -6 -60
c-4 -33 -10 -154 -13 -270 l-7 -210 46 0 47 0 1 250 c1 138 3 255 4 260 1 6 3
15 4 20 0 6 14 10 30 10 28 0 30 3 37 46 5 34 3 48 -7 55 -8 5 -57 9 -110 9
-92 0 -97 -1 -103 -22z"/>
<path d="M2615 1228 c-49 -39 -55 -69 -55 -290 0 -178 3 -208 19 -245 24 -51
45 -63 114 -63 41 0 61 5 82 22 49 38 55 69 55 288 0 219 -6 250 -55 288 -39
31 -121 31 -160 0z m135 -128 c3 -25 3 -114 0 -199 l-5 -155 -33 -8 c-20 -5
-40 -5 -52 2 -19 10 -20 21 -20 185 0 95 4 186 10 200 9 23 14 26 52 23 43 -3
43 -3 48 -48z"/>
<path d="M928 369 c-12 -7 -18 -22 -18 -49 0 -34 5 -42 43 -67 44 -30 54 -55
24 -61 -12 -3 -20 4 -24 17 -7 26 -43 29 -43 3 0 -33 29 -62 64 -62 42 0 56
15 56 62 0 30 -5 41 -27 55 -52 32 -64 45 -52 59 14 17 39 7 39 -16 0 -13 5
-17 20 -13 27 7 25 29 -5 58 -26 27 -49 31 -77 14z"/>
<path d="M1104 333 c3 -21 6 -71 6 -110 0 -66 2 -73 20 -73 16 0 20 7 20 34 0
30 4 35 30 41 37 8 54 37 46 78 -10 49 -33 67 -84 67 l-45 0 7 -37z m84 -36
c3 -25 0 -28 -20 -25 -17 2 -24 11 -26 31 -3 25 0 28 20 25 17 -2 24 -11 26
-31z"/>
<path d="M1309 349 c-19 -19 -20 -28 -14 -92 9 -92 17 -107 58 -107 48 0 57
15 57 97 0 65 -3 77 -25 98 -30 30 -49 31 -76 4z m55 -27 c2 -4 8 -36 12 -71
7 -62 7 -63 -17 -59 -21 3 -24 9 -27 57 -2 29 -1 60 2 67 6 15 22 19 30 6z"/>
<path d="M1480 293 c0 -91 10 -143 26 -143 8 0 14 15 16 38 l3 37 23 -37 c14
-23 31 -38 43 -38 25 0 24 5 -6 44 -22 29 -23 35 -10 46 8 7 15 28 15 46 0 45
-30 74 -75 74 l-35 0 0 -67z m74 10 c4 -9 2 -21 -3 -26 -15 -15 -41 0 -41 23
0 25 35 28 44 3z"/>
<path d="M1647 354 c-14 -14 -7 -34 12 -34 20 0 21 -3 37 -122 4 -33 11 -48
21 -48 13 0 14 13 8 80 -6 70 -5 80 9 80 9 0 16 8 16 20 0 13 -7 20 -19 20
-10 0 -31 3 -47 6 -16 3 -32 2 -37 -2z"/>
<path d="M1820 329 c-18 -32 -3 -68 35 -91 21 -11 35 -28 35 -39 0 -25 -30
-25 -37 1 -7 26 -33 26 -33 0 0 -26 34 -60 60 -60 27 0 53 42 44 74 -3 14 -21
35 -40 47 -19 11 -34 27 -34 35 0 19 26 18 34 -1 7 -18 36 -20 36 -2 0 50 -78
78 -100 36z"/>
<path d="M650 331 c0 -10 139 -23 154 -13 6 3 0 9 -14 13 -36 10 -140 10 -140
0z"/>
<path d="M2085 283 c15 -149 13 -143 49 -143 50 0 59 18 51 97 -10 92 -17 103
-65 103 l-40 0 5 -57z m63 0 c-5 -25 -28 -28 -28 -4 0 12 6 21 16 21 9 0 14
-7 12 -17z m10 -81 c3 -19 -1 -23 -15 -20 -10 2 -19 14 -21 26 -3 19 1 23 15
20 10 -2 19 -14 21 -26z"/>
<path d="M2266 319 c-5 -24 -26 -163 -26 -173 0 -3 7 -6 15 -6 8 0 15 9 15 20
0 13 7 20 19 20 10 0 21 -9 24 -20 3 -11 12 -20 20 -20 12 0 10 16 -13 91 -32
102 -46 125 -54 88z"/>
<path d="M2380 296 c0 -77 13 -156 26 -156 7 0 14 14 16 33 l3 32 20 -32 c10
-18 28 -33 38 -33 16 0 15 4 -8 37 -16 25 -21 41 -15 47 13 13 13 62 0 87 -8
13 -21 19 -45 19 -33 0 -35 -2 -35 -34z m59 -15 c11 -20 5 -31 -16 -31 -7 0
-13 11 -13 25 0 29 15 33 29 6z"/>
<path d="M2555 280 c3 -5 28 -10 56 -10 27 0 49 5 49 10 0 6 -25 10 -56 10
-34 0 -53 -4 -49 -10z"/>
<path d="M570 271 c0 -9 215 -20 234 -12 4 2 2 7 -5 12 -19 12 -229 11 -229 0z"/>
<path d="M2565 230 c3 -5 40 -10 81 -10 48 0 73 4 69 10 -3 6 -40 10 -81 10
-48 0 -73 -4 -69 -10z"/>
<path d="M660 210 c0 -6 34 -10 81 -10 51 0 78 4 74 10 -3 6 -40 10 -81 10
-43 0 -74 -4 -74 -10z"/>
<path d="M2588 183 c18 -2 45 -2 60 0 15 2 0 4 -33 4 -33 0 -45 -2 -27 -4z"/>
</g>
</svg>
