<?xml version="1.0" standalone="no"?>
<!DOCTYPE svg PUBLIC "-//W3C//DTD SVG 20010904//EN"
 "http://www.w3.org/TR/2001/REC-SVG-20010904/DTD/svg10.dtd">
<svg version="1.0" xmlns="http://www.w3.org/2000/svg"
 width="450.000000pt" height="391.000000pt" viewBox="0 0 450.000000 391.000000"
 preserveAspectRatio="xMidYMid meet">
<metadata>
Created by potrace 1.10, written by Peter Selinger 2001-2011
</metadata>
<g transform="translate(0.000000,391.000000) scale(0.100000,-0.100000)"
fill="#000000" stroke="none">
<path d="M2170 3837 c-138 -91 -146 -178 -27 -305 29 -31 66 -77 81 -102 16
-25 37 -55 48 -67 l20 -21 -59 5 c-47 4 -69 1 -110 -17 -28 -12 -59 -30 -69
-41 -23 -26 -38 -24 -78 11 -36 32 -57 83 -75 180 -5 30 -17 75 -25 99 -9 24
-16 52 -16 63 0 25 -18 19 -43 -15 -57 -76 -44 -326 24 -458 l22 -43 -39 -33
c-22 -18 -77 -55 -124 -83 l-85 -51 -82 7 c-75 6 -82 5 -92 -14 -17 -31 -13
-129 6 -169 37 -79 224 -179 508 -272 l176 -58 -35 -24 c-19 -13 -45 -40 -58
-61 -13 -21 -31 -38 -40 -38 -28 0 -99 -31 -155 -67 -51 -31 -217 -182 -210
-190 2 -1 47 19 100 46 110 56 199 88 272 98 41 5 58 14 93 49 68 67 101 79
217 80 55 1 129 8 165 17 36 9 100 19 143 23 78 7 78 7 107 50 17 23 30 45 30
48 0 3 -23 -3 -50 -14 -28 -11 -53 -20 -56 -20 -2 0 14 24 37 53 23 28 51 71
61 95 49 108 4 253 -92 302 -47 24 -71 25 -110 5 -40 -21 -38 -31 10 -38 83
-11 130 -76 109 -152 -18 -65 -108 -83 -228 -46 l-61 19 0 -28 c0 -71 -38 -93
-160 -92 -145 2 -471 71 -570 122 -88 45 -143 117 -121 158 16 30 45 35 117
22 62 -12 64 -12 94 14 38 32 82 41 188 40 69 -1 81 1 71 12 -6 8 -29 19 -50
26 -36 10 -39 14 -39 46 0 85 74 169 188 212 62 24 139 26 169 5 11 -8 35 -36
52 -63 20 -32 44 -55 70 -67 38 -17 40 -17 117 10 123 42 264 35 264 -15 0
-17 -38 -40 -65 -40 -28 0 -15 -20 69 -111 117 -126 146 -186 208 -427 47
-185 50 -203 45 -294 l-4 -98 28 0 c30 0 39 20 55 118 4 23 9 40 12 38 2 -3
15 -36 27 -73 12 -37 26 -68 31 -68 48 2 154 19 154 24 0 4 -20 19 -44 35 -38
24 -45 34 -60 89 -10 34 -25 76 -34 92 -15 28 -40 77 -177 360 -45 91 -81 136
-190 234 -41 37 -55 56 -46 59 8 3 33 22 54 42 32 29 39 42 34 61 -9 34 -53
57 -138 71 -41 6 -78 15 -82 18 -5 4 -15 38 -24 75 -22 95 -64 139 -198 205
-114 55 -200 125 -241 196 -31 53 -28 74 21 138 19 25 34 46 32 46 -1 0 -31
-19 -67 -43z"/>
<path d="M2175 3131 c-22 -10 -71 -41 -109 -69 l-69 -51 44 -11 c45 -12 118
-8 147 10 14 7 11 9 -15 10 -46 0 -49 16 -10 55 45 45 71 45 85 3 l10 -33 1
33 c1 38 -14 72 -32 72 -7 0 -30 -9 -52 -19z"/>
<path d="M1573 2836 c-41 -19 -42 -24 -3 -18 38 5 88 -15 95 -39 3 -10 1 -28
-5 -39 -17 -32 -5 -35 24 -7 29 29 35 77 11 97 -22 19 -87 22 -122 6z"/>
<path d="M2622 2319 c-154 -19 -343 -79 -840 -268 -469 -179 -605 -220 -678
-206 -29 5 -34 3 -34 -14 0 -26 53 -69 97 -77 66 -12 214 4 326 35 59 17 110
31 114 31 3 0 3 -138 -1 -307 -5 -230 -13 -357 -31 -503 -14 -107 -25 -199
-25 -204 0 -9 157 -2 167 8 3 3 14 67 24 143 14 101 22 244 29 527 5 214 13
393 17 397 13 12 447 177 619 234 149 50 298 85 365 85 48 0 108 -30 125 -61
21 -42 34 -35 34 19 0 128 -109 185 -308 161z"/>
<path d="M126 2178 c-2 -13 -9 -93 -15 -178 -6 -85 -26 -270 -45 -410 -40
-293 -56 -441 -56 -513 l0 -50 403 6 c487 8 929 29 914 43 -13 13 -504 48
-912 64 -142 6 -261 13 -264 16 -3 3 12 127 32 277 42 304 56 445 57 560 0 68
2 77 19 77 10 0 74 -4 142 -10 195 -15 725 -29 819 -20 47 4 81 8 75 8 -118
19 -508 70 -775 102 -190 22 -355 43 -367 45 -17 4 -24 0 -27 -17z"/>
<path d="M3200 2089 c-58 -5 -109 -11 -115 -12 -5 -2 85 -7 200 -10 116 -4
296 -16 400 -27 105 -11 291 -25 415 -31 124 -6 228 -14 231 -18 4 -3 12 -224
18 -491 6 -267 14 -528 17 -581 l6 -97 -143 -6 c-79 -3 -256 -11 -394 -16
-536 -22 -1429 -76 -1490 -90 -41 -10 1324 -3 1830 9 l260 6 -3 235 c-3 276
-19 871 -28 1016 l-6 101 -62 6 c-111 11 -1029 16 -1136 6z"/>
<path d="M408 1924 c-3 -5 -9 -65 -13 -134 -3 -69 -19 -213 -34 -320 -15 -107
-25 -198 -22 -201 7 -7 327 3 334 11 2 3 7 30 10 61 l7 55 -111 -4 -112 -5 6
34 c3 19 9 55 13 82 l6 47 74 0 74 0 0 54 0 55 -71 7 -71 7 6 51 c3 28 6 60 6
72 0 20 4 21 100 16 l100 -5 0 57 0 56 -73 0 c-41 0 -108 3 -149 6 -41 4 -77
3 -80 -2z"/>
<path d="M786 1763 c-8 -198 -25 -432 -33 -462 l-6 -24 157 5 c86 3 159 8 162
11 4 4 9 29 12 57 l5 50 -101 0 -101 0 6 255 6 255 -50 0 -51 0 -6 -147z"/>
<path d="M3216 1888 c-3 -7 -7 -103 -11 -213 -3 -110 -12 -328 -19 -485 -7
-157 -10 -289 -8 -294 4 -7 121 -1 128 7 1 1 7 130 13 287 7 157 16 377 21
489 5 112 7 208 4 212 -9 14 -124 11 -128 -3z"/>
<path d="M2598 1885 c-4 -4 -5 -139 -1 -299 4 -225 2 -340 -11 -505 -9 -117
-15 -215 -13 -217 2 -3 36 -1 76 2 56 5 71 10 71 23 0 11 27 387 30 419 0 2
16 2 36 0 34 -3 39 -8 95 -103 l58 -100 -6 -114 -6 -114 67 5 c37 3 69 8 72
10 2 3 6 68 7 144 l2 139 -51 89 -52 89 29 40 c42 57 59 126 59 233 0 81 -3
98 -28 145 -20 39 -41 62 -77 84 -47 29 -52 30 -199 33 -83 2 -154 1 -158 -3z
m297 -176 c26 -21 27 -25 23 -105 -4 -105 -14 -116 -103 -122 l-65 -4 0 120
c0 134 -3 129 76 131 28 1 50 -6 69 -20z"/>
<path d="M3440 1810 l0 -80 57 0 56 0 -7 -137 c-15 -311 -25 -627 -19 -654 5
-27 9 -29 53 -29 87 0 80 -31 80 359 0 190 3 370 6 399 l7 52 48 0 49 0 0 79
0 78 -77 7 c-42 3 -116 6 -165 6 l-88 0 0 -80z"/>
<path d="M2075 1866 c-51 -22 -97 -68 -121 -121 -24 -49 -24 -54 -24 -400 0
-318 2 -354 19 -390 22 -49 67 -89 118 -106 47 -15 191 -6 237 16 94 45 151
143 168 287 12 105 3 501 -13 560 -14 54 -68 120 -119 146 -37 18 -60 22 -140
22 -55 -1 -107 -6 -125 -14z m221 -177 c17 -19 19 -42 22 -281 2 -142 1 -275
-3 -295 -3 -19 -17 -46 -30 -59 -21 -21 -34 -24 -94 -24 -105 0 -101 -15 -101
342 0 355 -6 338 113 338 62 0 77 -3 93 -21z"/>
<path d="M3950 1858 c-50 -25 -85 -71 -101 -130 -6 -25 -9 -153 -7 -346 3
-306 3 -307 28 -352 14 -24 41 -55 60 -68 31 -21 44 -23 116 -20 69 3 85 7
116 30 20 15 47 49 59 75 23 46 24 58 27 311 4 301 -4 378 -45 436 -43 60 -70
76 -143 82 -55 5 -72 2 -110 -18z m164 -154 c14 -13 16 -54 16 -290 0 -261 -1
-275 -20 -294 -28 -28 -110 -28 -135 -1 -16 18 -17 43 -14 294 3 213 7 278 18
290 18 23 113 23 135 1z"/>
<path d="M1380 540 c-23 -23 -27 -95 -7 -122 7 -9 35 -29 62 -45 53 -31 73
-74 40 -87 -26 -9 -55 12 -55 40 0 22 -4 25 -27 22 -25 -3 -28 -7 -26 -38 1
-25 10 -43 32 -62 40 -36 80 -36 120 -2 24 20 31 34 31 62 -1 53 -21 83 -77
113 -36 19 -49 32 -51 52 -3 23 0 27 23 27 20 0 28 -7 36 -30 11 -31 17 -34
43 -24 24 9 19 49 -10 83 -22 26 -33 31 -70 31 -31 0 -50 -6 -64 -20z"/>
<path d="M1658 553 c-3 -4 -1 -64 3 -133 4 -69 8 -142 8 -163 1 -36 3 -38 29
-35 26 3 27 5 27 58 l0 55 37 3 c48 4 78 40 78 93 0 50 -14 85 -42 102 -27 17
-134 32 -140 20z m120 -110 c3 -42 2 -43 -27 -43 -25 0 -31 4 -31 23 0 12 -3
32 -6 45 -6 22 -4 23 27 20 32 -3 34 -5 37 -45z"/>
<path d="M1965 525 c-21 -20 -25 -33 -25 -87 0 -165 24 -218 99 -218 75 0 95
64 72 229 -6 41 -15 60 -35 78 -36 30 -80 30 -111 -2z m83 -47 c8 -11 18 -143
13 -185 0 -7 -12 -13 -26 -13 -28 0 -31 8 -39 114 -6 69 2 96 29 96 7 0 17 -6
23 -12z"/>
<path d="M2220 472 c0 -38 3 -110 6 -160 l7 -92 28 0 27 0 -5 62 -5 63 43 -62
c36 -51 49 -63 72 -63 15 0 27 3 27 6 0 4 -16 29 -36 56 l-35 50 21 43 c44 92
-2 165 -104 165 l-46 0 0 -68z m108 -34 c3 -36 2 -38 -27 -38 -30 0 -31 2 -31
41 0 38 1 40 28 37 23 -3 27 -8 30 -40z"/>
<path d="M2464 514 c3 -9 6 -22 6 -30 0 -8 10 -14 24 -14 28 0 29 -3 47 -153
11 -92 13 -97 35 -97 13 0 24 6 24 13 0 17 -19 175 -25 210 -4 24 -2 27 25 27
27 0 30 3 30 30 l0 30 -86 0 c-74 0 -85 -2 -80 -16z"/>
<path d="M2746 509 c-19 -15 -26 -30 -26 -55 0 -49 12 -68 70 -103 40 -25 51
-36 48 -54 -2 -16 -10 -22 -28 -22 -20 0 -26 6 -28 28 -4 30 -38 39 -49 11 -9
-24 24 -83 53 -94 38 -15 53 -12 79 15 50 49 24 125 -56 165 -41 21 -53 55
-24 66 20 8 45 -13 45 -37 0 -22 4 -23 30 -9 29 15 4 80 -37 99 -34 16 -47 14
-77 -10z"/>
<path d="M3124 473 c3 -21 8 -76 11 -123 10 -143 9 -140 65 -140 69 0 94 27
85 90 -4 25 -8 71 -10 103 -4 81 -29 107 -103 107 l-54 0 6 -37z m90 -19 c9
-3 16 -17 16 -30 0 -19 -5 -24 -24 -24 -16 0 -27 7 -31 20 -11 33 5 47 39 34z
m24 -151 c3 -30 1 -33 -22 -33 -14 0 -26 6 -26 13 0 6 -3 22 -7 35 -5 21 -3
23 23 20 25 -2 29 -8 32 -35z"/>
<path d="M972 488 c3 -9 39 -14 121 -16 100 -2 117 0 117 13 0 13 -19 15 -121
15 -92 0 -120 -3 -117 -12z"/>
<path d="M3396 468 c-7 -44 -36 -247 -36 -254 0 -3 10 -4 23 -2 16 2 23 11 25
31 3 21 9 27 28 27 19 0 26 -6 31 -30 4 -23 11 -30 29 -30 13 0 24 1 24 3 0 1
-20 65 -43 142 -31 100 -48 141 -59 143 -12 2 -18 -6 -22 -30z"/>
<path d="M3573 402 c11 -169 16 -192 42 -192 20 0 21 3 14 48 -4 26 -5 49 -3
51 5 5 3 7 43 -51 24 -36 38 -48 57 -48 l24 0 -36 55 c-36 53 -36 56 -19 75
14 15 16 30 12 67 -7 61 -40 93 -99 93 l-41 0 6 -98z m93 14 c7 -30 -1 -46
-26 -46 -19 0 -30 19 -30 51 0 30 48 26 56 -5z"/>
<path d="M3825 420 c3 -5 42 -10 86 -10 46 0 79 4 79 10 0 6 -35 10 -86 10
-54 0 -83 -4 -79 -10z"/>
<path d="M850 408 c0 -13 29 -16 176 -22 119 -5 180 -4 187 3 6 6 8 13 6 16
-3 2 -87 8 -187 11 -158 6 -182 5 -182 -8z"/>
<path d="M3840 351 c0 -12 63 -21 158 -21 79 0 107 11 60 24 -35 9 -218 7
-218 -3z"/>
<path d="M987 324 c-17 -18 14 -24 119 -24 88 0 115 3 112 13 -5 13 -218 24
-231 11z"/>
<path d="M3847 284 c-16 -16 10 -24 79 -24 69 0 94 10 58 24 -21 8 -129 8
-137 0z"/>
</g>
</svg>
